<svg fill="none" style="visibility: hidden; position: absolute;" aria-hidden="true">
    <symbol id="arrow-right" viewBox="0 0 25 9" xmlns="http://www.w3.org/2000/svg">
        <defs />
        <path id="Arrow 2__Arrow-right"
            d="M22.18 3.25L19.22 0.28C18.92 -0.01 18.92 -0.48 19.22 -0.78C19.52 -1.08 19.99 -1.08 20.28 -0.78L24.53 3.46C24.82 3.76 24.82 4.23 24.53 4.53L20.28 8.77C19.99 9.07 19.52 9.07 19.22 8.77C18.92 8.47 18.92 8 19.22 7.71L22.18 4.75L0 4.75L0 3.25L22.18 3.25Z"
            fill-opacity="1.000000" fill-rule="evenodd" />
    </symbol>
    <symbol id="arrow" viewBox="0 0 13 22" xmlns="http://www.w3.org/2000/svg">
        <defs />
        <g opacity="0.600000">
            <path id="&gt;__arrow" d="M11.58 0L13 3.21L3.96 10.91L13 18.78L11.58 22L0 11.62L0 9.83L11.58 0Z"
                fill-opacity="1.000000" fill-rule="nonzero" />
        </g>
    </symbol>
    <symbol id="hero-Illustration" viewBox="0 0 638 362" xmlns="http://www.w3.org/2000/svg">
        <defs>
            <filter id="filter_757_719_dd__hero-Illustration" x="305.000000" y="187.926758" width="42.291992"
                height="43.127930" filterUnits="userSpaceOnUse" color-interpolation-filters="sRGB">
                <feFlood flood-opacity="0" result="BackgroundImageFix" />
                <feColorMatrix in="SourceAlpha" type="matrix" values="0 0 0 0 0 0 0 0 0 0 0 0 0 0 0 0 0 0 127 0"
                    result="hardAlpha" />
                <feOffset dx="0" dy="4" />
                <feGaussianBlur stdDeviation="4.66667" />
                <feComposite in2="hardAlpha" operator="out" k2="-1" k3="1" />
                <feColorMatrix type="matrix" values="0 0 0 0 0.53333 0 0 0 0 0.9451 0 0 0 0 0.85882 0 0 0 1 0" />
                <feBlend mode="normal" in2="BackgroundImageFix" result="effect_dropShadow_1" />
                <feBlend mode="normal" in="SourceGraphic" in2="effect_dropShadow_1" result="shape" />
            </filter>
            <linearGradient id="paint_linear_757_683_0__hero-Illustration" x1="319.250031" y1="0.000008" x2="442.351227"
                y2="524.886292" gradientUnits="userSpaceOnUse">
                <stop stop-color="#FFFFFF" stop-opacity="0.160784" />
                <stop offset="1.000000" stop-color="#C4C4C4" stop-opacity="0.000000" />
            </linearGradient>
            <linearGradient id="paint_linear_757_684_0__hero-Illustration" x1="319.000000" y1="-0.000031"
                x2="657.630737" y2="244.837708" gradientUnits="userSpaceOnUse">
                <stop stop-color="#FFFFFF" stop-opacity="0.168627" />
                <stop offset="1.000000" stop-color="#000000" stop-opacity="0.000000" />
            </linearGradient>
            <linearGradient id="paint_linear_757_692_0__hero-Illustration" x1="41.826599" y1="126.113251"
                x2="292.376099" y2="424.503662" gradientUnits="userSpaceOnUse">
                <stop stop-color="#40416E" />
                <stop offset="1.000000" stop-color="#5A5B8B" />
            </linearGradient>
            <linearGradient id="paint_linear_757_693_0__hero-Illustration" x1="96.775330" y1="90.502930" x2="209.543137"
                y2="420.410614" gradientUnits="userSpaceOnUse">
                <stop stop-color="#FFFFFF" stop-opacity="0.168627" />
                <stop offset="1.000000" stop-color="#000000" stop-opacity="0.000000" />
            </linearGradient>
            <linearGradient id="paint_linear_757_698_0__hero-Illustration" x1="315.416870" y1="15.233398"
                x2="383.833069" y2="224.644226" gradientUnits="userSpaceOnUse">
                <stop stop-color="#FFFFFF" stop-opacity="0.149020" />
                <stop offset="1.000000" stop-color="#C4C4C4" stop-opacity="0.000000" />
            </linearGradient>
            <linearGradient id="paint_linear_757_699_0__hero-Illustration" x1="797.652100" y1="535.759705"
                x2="358.062469" y2="72.825104" gradientUnits="userSpaceOnUse">
                <stop stop-color="#40416E" />
                <stop offset="1.000000" stop-color="#5A5B8B" />
            </linearGradient>
            <linearGradient id="paint_linear_757_700_0__hero-Illustration" x1="551.977478" y1="189.070312"
                x2="652.215454" y2="518.978027" gradientUnits="userSpaceOnUse">
                <stop stop-color="#FFFFFF" stop-opacity="0.168627" />
                <stop offset="1.000000" stop-color="#000000" stop-opacity="0.000000" />
            </linearGradient>
            <linearGradient id="paint_linear_757_701_0__hero-Illustration" x1="551.977173" y1="206.991226"
                x2="573.298523" y2="247.851883" gradientUnits="userSpaceOnUse">
                <stop stop-color="#FFFFFF" stop-opacity="0.560784" />
                <stop offset="1.000000" stop-color="#C4C4C4" stop-opacity="0.000000" />
            </linearGradient>
            <linearGradient id="paint_linear_757_702_0__hero-Illustration" x1="506.974670" y1="224.913086"
                x2="514.606750" y2="265.773743" gradientUnits="userSpaceOnUse">
                <stop stop-color="#F9C746" stop-opacity="0.521569" />
                <stop offset="1.000000" stop-color="#C4C4C4" stop-opacity="0.000000" />
            </linearGradient>
            <linearGradient id="paint_linear_757_703_0__hero-Illustration" x1="550.384094" y1="224.913086"
                x2="554.018372" y2="265.773743" gradientUnits="userSpaceOnUse">
                <stop stop-color="#84EBE5" stop-opacity="0.619608" />
                <stop offset="1.000000" stop-color="#C4C4C4" stop-opacity="0.000000" />
            </linearGradient>
            <linearGradient id="paint_linear_757_704_0__hero-Illustration" x1="506.974670" y1="296.598633"
                x2="514.606750" y2="337.459290" gradientUnits="userSpaceOnUse">
                <stop stop-color="#FFFFFF" stop-opacity="0.560784" />
                <stop offset="1.000000" stop-color="#C4C4C4" stop-opacity="0.000000" />
            </linearGradient>
            <linearGradient id="paint_linear_757_705_0__hero-Illustration" x1="550.384094" y1="296.598633"
                x2="554.018372" y2="337.459290" gradientUnits="userSpaceOnUse">
                <stop stop-color="#F47D9E" />
                <stop offset="1.000000" stop-color="#C4C4C4" stop-opacity="0.000000" />
            </linearGradient>
            <linearGradient id="paint_linear_757_706_0__hero-Illustration" x1="520.117615" y1="260.755859"
                x2="523.025085" y2="301.616516" gradientUnits="userSpaceOnUse">
                <stop stop-color="#F2C87D" />
                <stop offset="1.000000" stop-color="#C4C4C4" stop-opacity="0.000000" />
            </linearGradient>
            <linearGradient id="paint_linear_757_707_0__hero-Illustration" x1="565.917114" y1="260.755859"
                x2="574.760620" y2="301.616516" gradientUnits="userSpaceOnUse">
                <stop stop-color="#FFFFFF" stop-opacity="0.619608" />
                <stop offset="1.000000" stop-color="#C4C4C4" stop-opacity="0.000000" />
            </linearGradient>
            <linearGradient id="paint_linear_757_708_0__hero-Illustration" x1="488.256805" y1="258.963715"
                x2="519.718689" y2="301.078857" gradientUnits="userSpaceOnUse">
                <stop stop-color="#F37D9D" />
                <stop offset="1.000000" stop-color="#C4C4C4" stop-opacity="0.000000" />
            </linearGradient>
            <linearGradient id="paint_linear_757_709_0__hero-Illustration" x1="514.541443" y1="242.833984"
                x2="524.475281" y2="283.694641" gradientUnits="userSpaceOnUse">
                <stop stop-color="#FFFFFF" stop-opacity="0.580392" />
                <stop offset="1.000000" stop-color="#C4C4C4" stop-opacity="0.000000" />
            </linearGradient>
            <linearGradient id="paint_linear_757_710_0__hero-Illustration" x1="569.899292" y1="242.833984"
                x2="575.108459" y2="283.694641" gradientUnits="userSpaceOnUse">
                <stop stop-color="#FFFFFF" stop-opacity="0.450980" />
                <stop offset="1.000000" stop-color="#C4C4C4" stop-opacity="0.000000" />
            </linearGradient>
            <linearGradient id="paint_linear_757_711_0__hero-Illustration" x1="514.541443" y1="278.676758"
                x2="524.475281" y2="319.537415" gradientUnits="userSpaceOnUse">
                <stop stop-color="#70D1E7" />
                <stop offset="1.000000" stop-color="#C4C4C4" stop-opacity="0.000000" />
            </linearGradient>
            <linearGradient id="paint_linear_757_717_0__hero-Illustration" x1="314.831421" y1="147.040955"
                x2="127.282463" y2="175.322342" gradientUnits="userSpaceOnUse">
                <stop stop-color="#767799" />
                <stop offset="1.000000" stop-color="#767799" stop-opacity="0.000000" />
            </linearGradient>
            <linearGradient id="paint_linear_757_718_0__hero-Illustration" x1="338.205139" y1="261.565491"
                x2="535.756714" y2="233.284134" gradientUnits="userSpaceOnUse">
                <stop stop-color="#767799" />
                <stop offset="1.000000" stop-color="#767799" stop-opacity="0.000000" />
            </linearGradient>
        </defs>
        <path
            d="M80 17.02C80 7.62 87.62 0 97.02 0L541.47 0C550.87 0 558.5 7.62 558.5 17.02L558.5 344.09C558.5 353.49 550.87 361.11 541.47 361.11L97.02 361.11C87.62 361.11 80 353.49 80 344.09L80 17.02Z"
            fill="url(#paint_linear_757_683_0__hero-Illustration)" fill-opacity="1.000000" fill-rule="nonzero" />
        <path
            d="M541.22 1.79L96.77 1.79C88.36 1.79 81.54 8.61 81.54 17.02L81.54 344.09C81.54 352.5 88.36 359.32 96.77 359.32L541.22 359.32C549.63 359.32 556.45 352.5 556.45 344.09L556.45 17.02C556.45 8.61 549.63 1.79 541.22 1.79ZM96.77 0C87.37 0 79.75 7.62 79.75 17.02L79.75 344.09C79.75 353.49 87.37 361.11 96.77 361.11L541.22 361.11C550.62 361.11 558.25 353.49 558.25 344.09L558.25 17.02C558.25 7.62 550.62 0 541.22 0L96.77 0Z"
            fill="url(#paint_linear_757_684_0__hero-Illustration)" fill-opacity="1.000000" fill-rule="evenodd" />
        <path
            d="M364.69 281.81C364.69 278.1 367.71 275.09 371.42 275.09L390.76 275.09C394.47 275.09 397.48 278.1 397.48 281.81L397.48 301.14C397.48 304.85 394.47 307.87 390.76 307.87L371.42 307.87C367.71 307.87 364.69 304.85 364.69 301.14L364.69 281.81Z"
            fill="#51CB9C" fill-opacity="1.000000" fill-rule="nonzero" />
        <path
            d="M370.58 291.46L376.26 297.78L378.97 297.78L373.27 291.46L378.97 285.17L376.26 285.17L370.58 291.46ZM385.89 285.17L383.18 285.17L388.89 291.46L383.18 297.78L385.89 297.78L391.6 291.46L385.89 285.17Z"
            fill="#FFFFFF" fill-opacity="1.000000" fill-rule="evenodd" />
        <path
            d="M258.06 103.49C258.06 99.78 261.07 96.77 264.79 96.77L284.12 96.77C287.84 96.77 290.85 99.78 290.85 103.49L290.85 122.83C290.85 126.54 287.84 129.55 284.12 129.55L264.79 129.55C261.07 129.55 258.06 126.54 258.06 122.83L258.06 103.49Z"
            fill="#1ABCFE" fill-opacity="1.000000" fill-rule="nonzero" />
        <path
            d="M277.34 109.14L274.68 105.06L266.7 105.06L266.7 122.71L282.67 122.71L282.67 109.14L277.34 109.14ZM280.57 111.24L276.21 111.24L273.54 107.16L268.8 107.16L268.8 120.61L280.57 120.61L280.57 111.24Z"
            fill="#FFFFFF" fill-opacity="1.000000" fill-rule="evenodd" />
        <path
            d="M425.63 140.23C425.63 136.52 428.64 133.51 432.35 133.51L451.69 133.51C455.4 133.51 458.41 136.52 458.41 140.23L458.41 159.56C458.41 163.28 455.4 166.29 451.69 166.29L432.35 166.29C428.64 166.29 425.63 163.28 425.63 159.56L425.63 140.23Z"
            fill="#FFC04A" fill-opacity="1.000000" fill-rule="nonzero" />
        <path
            d="M434.03 149.05C435.39 148.8 436.07 148.1 436.07 146.95C436.07 146.44 436.01 145.58 435.87 144.35C435.74 143.04 435.68 142.1 435.68 141.51C435.68 140.55 435.94 139.82 436.47 139.31C437.02 138.81 437.75 138.55 438.65 138.55L439.81 138.55L439.81 140.13L438.99 140.13C438.47 140.13 438.09 140.25 437.84 140.49C437.58 140.72 437.45 141.1 437.45 141.63C437.45 142.02 437.48 142.5 437.53 143.07C437.59 143.63 437.62 144.01 437.64 144.21C437.77 145.49 437.84 146.42 437.84 147.01C437.84 147.72 437.65 148.31 437.3 148.79C436.95 149.26 436.41 149.57 435.68 149.73L435.68 149.77C436.41 149.93 436.95 150.25 437.3 150.73C437.65 151.21 437.84 151.8 437.84 152.51C437.84 153.1 437.77 154.03 437.64 155.31C437.62 155.51 437.59 155.89 437.53 156.47C437.48 157.03 437.45 157.5 437.45 157.89C437.45 158.42 437.58 158.8 437.84 159.03C438.09 159.27 438.47 159.39 438.99 159.39L439.81 159.39L439.81 160.97L438.65 160.97C437.75 160.97 437.02 160.71 436.47 160.21C435.94 159.7 435.68 158.97 435.68 158.01C435.68 157.42 435.74 156.47 435.87 155.17C436.01 153.94 436.07 153.08 436.07 152.57C436.07 151.42 435.39 150.72 434.03 150.47L434.03 149.05Z"
            fill="#1C1E53" fill-opacity="1.000000" fill-rule="nonzero" />
        <path
            d="M450.25 150.47C448.89 150.72 448.21 151.42 448.21 152.57C448.21 153.08 448.28 153.94 448.41 155.17C448.54 156.47 448.61 157.42 448.61 158.01C448.61 158.97 448.34 159.7 447.79 160.21C447.26 160.71 446.54 160.97 445.63 160.97L444.47 160.97L444.47 159.39L445.29 159.39C445.81 159.39 446.2 159.27 446.45 159.03C446.7 158.8 446.83 158.42 446.83 157.89C446.83 157.5 446.8 157.03 446.75 156.47C446.7 155.89 446.66 155.51 446.65 155.31C446.52 154.03 446.45 153.1 446.45 152.51C446.45 151.8 446.62 151.21 446.97 150.73C447.33 150.25 447.88 149.93 448.61 149.77L448.61 149.73C447.88 149.57 447.33 149.26 446.97 148.79C446.62 148.31 446.45 147.72 446.45 147.01C446.45 146.42 446.52 145.49 446.65 144.21C446.66 144.01 446.7 143.63 446.75 143.07C446.8 142.5 446.83 142.02 446.83 141.63C446.83 141.1 446.7 140.72 446.45 140.49C446.2 140.25 445.81 140.13 445.29 140.13L444.47 140.13L444.47 138.55L445.63 138.55C446.54 138.55 447.26 138.81 447.79 139.31C448.34 139.82 448.61 140.55 448.61 141.51C448.61 142.1 448.54 143.04 448.41 144.35C448.28 145.58 448.21 146.44 448.21 146.95C448.21 148.1 448.89 148.8 450.25 149.05L450.25 150.47Z"
            fill="#1C1E53" fill-opacity="1.000000" fill-rule="nonzero" />
        <path
            d="M0 101.25C0 95.31 4.81 90.5 10.75 90.5L182.79 90.5C188.73 90.5 193.55 95.31 193.55 101.25L193.55 212.36C193.55 218.3 188.73 223.12 182.79 223.12L10.75 223.12C4.81 223.12 0 218.3 0 212.36L0 101.25Z"
            fill="url(#paint_linear_757_692_0__hero-Illustration)" fill-opacity="1.000000" fill-rule="nonzero" />
        <path
            d="M182.79 92.29L10.75 92.29C5.8 92.29 1.79 96.3 1.79 101.25L1.79 212.36C1.79 217.31 5.8 221.32 10.75 221.32L182.79 221.32C187.74 221.32 191.75 217.31 191.75 212.36L191.75 101.25C191.75 96.3 187.74 92.29 182.79 92.29ZM10.75 90.5C4.81 90.5 0 95.31 0 101.25L0 212.36C0 218.3 4.81 223.12 10.75 223.12L182.79 223.12C188.73 223.12 193.55 218.3 193.55 212.36L193.55 101.25C193.55 95.31 188.73 90.5 182.79 90.5L10.75 90.5Z"
            fill="url(#paint_linear_757_693_0__hero-Illustration)" fill-opacity="1.000000" fill-rule="evenodd" />
        <path
            d="M21.5 125.44C21.5 122.48 23.91 120.07 26.88 120.07L77.06 120.07C80.03 120.07 82.43 122.48 82.43 125.44L82.43 182.79C82.43 185.76 80.03 188.17 77.06 188.17L26.88 188.17C23.91 188.17 21.5 185.76 21.5 182.79L21.5 125.44Z"
            fill="#FFFFFF" fill-opacity="0.170000" fill-rule="nonzero" />
        <path
            d="M94.08 125C94.08 122.27 96.29 120.07 99.01 120.07L162.63 120.07C165.35 120.07 167.56 122.27 167.56 125C167.56 127.72 165.35 129.92 162.63 129.92L99.01 129.92C96.29 129.92 94.08 127.72 94.08 125Z"
            fill="#FFFFFF" fill-opacity="0.600000" fill-rule="nonzero" />
        <path
            d="M94.08 143.81C94.08 141.09 96.29 138.89 99.01 138.89L162.63 138.89C165.35 138.89 167.56 141.09 167.56 143.81C167.56 146.54 165.35 148.74 162.63 148.74L99.01 148.74C96.29 148.74 94.08 146.54 94.08 143.81Z"
            fill="#FFFFFF" fill-opacity="0.260000" fill-rule="nonzero" />
        <path
            d="M94.08 175.18C94.08 166.02 101.5 158.6 110.66 158.6L111.56 158.6C120.71 158.6 128.13 166.02 128.13 175.18C128.13 184.33 120.71 191.75 111.56 191.75L110.66 191.75C101.5 191.75 94.08 184.33 94.08 175.18Z"
            fill="#767799" fill-opacity="1.000000" fill-rule="nonzero" />
        <path
            d="M90.5 33.6C90.5 23.45 98.72 15.23 108.87 15.23L521.96 15.23C532.1 15.23 540.33 23.45 540.33 33.6C540.33 43.74 532.1 51.97 521.96 51.97L108.87 51.97C98.72 51.97 90.5 43.74 90.5 33.6Z"
            fill="url(#paint_linear_757_698_0__hero-Illustration)" fill-opacity="1.000000" fill-rule="nonzero" />
        <path
            d="M465.95 199.82C465.95 193.88 470.77 189.07 476.7 189.07L627.24 189.07C633.18 189.07 638 193.88 638 199.82L638 310.93C638 316.87 633.18 321.68 627.24 321.68L476.7 321.68C470.77 321.68 465.95 316.87 465.95 310.93L465.95 199.82Z"
            fill="url(#paint_linear_757_699_0__hero-Illustration)" fill-opacity="1.000000" fill-rule="nonzero" />
        <path
            d="M627.24 190.86L476.7 190.86C471.75 190.86 467.74 194.87 467.74 199.82L467.74 310.93C467.74 315.88 471.75 319.89 476.7 319.89L627.24 319.89C632.19 319.89 636.2 315.88 636.2 310.93L636.2 199.82C636.2 194.87 632.19 190.86 627.24 190.86ZM476.7 189.07C470.77 189.07 465.95 193.88 465.95 199.82L465.95 310.93C465.95 316.87 470.77 321.68 476.7 321.68L627.24 321.68C633.18 321.68 638 316.87 638 310.93L638 199.82C638 193.88 633.18 189.07 627.24 189.07L476.7 189.07Z"
            fill="url(#paint_linear_757_700_0__hero-Illustration)" fill-opacity="1.000000" fill-rule="evenodd" />
        <path
            d="M481.88 210.57C481.88 208.59 483.48 206.99 485.46 206.99L618.48 206.99C620.46 206.99 622.06 208.59 622.06 210.57C622.06 212.55 620.46 214.16 618.48 214.16L485.46 214.16C483.48 214.16 481.88 212.55 481.88 210.57Z"
            fill="url(#paint_linear_757_701_0__hero-Illustration)" fill-opacity="1.000000" fill-rule="nonzero" />
        <path
            d="M481.88 228.49C481.88 226.51 483.48 224.91 485.46 224.91L528.48 224.91C530.46 224.91 532.06 226.51 532.06 228.49C532.06 230.47 530.46 232.08 528.48 232.08L485.46 232.08C483.48 232.08 481.88 230.47 481.88 228.49Z"
            fill="url(#paint_linear_757_702_0__hero-Illustration)" fill-opacity="1.000000" fill-rule="nonzero" />
        <path
            d="M538.43 228.49C538.43 226.51 540.04 224.91 542.02 224.91L558.74 224.91C560.72 224.91 562.33 226.51 562.33 228.49C562.33 230.47 560.72 232.08 558.74 232.08L542.02 232.08C540.04 232.08 538.43 230.47 538.43 228.49Z"
            fill="url(#paint_linear_757_703_0__hero-Illustration)" fill-opacity="1.000000" fill-rule="nonzero" />
        <path
            d="M481.88 300.18C481.88 298.2 483.48 296.59 485.46 296.59L528.48 296.59C530.46 296.59 532.06 298.2 532.06 300.18C532.06 302.16 530.46 303.76 528.48 303.76L485.46 303.76C483.48 303.76 481.88 302.16 481.88 300.18Z"
            fill="url(#paint_linear_757_704_0__hero-Illustration)" fill-opacity="1.000000" fill-rule="nonzero" />
        <path
            d="M538.43 300.18C538.43 298.2 540.04 296.59 542.02 296.59L558.74 296.59C560.72 296.59 562.33 298.2 562.33 300.18C562.33 302.16 560.72 303.76 558.74 303.76L542.02 303.76C540.04 303.76 538.43 302.16 538.43 300.18Z"
            fill="url(#paint_linear_757_705_0__hero-Illustration)" fill-opacity="1.000000" fill-rule="nonzero" />
        <path
            d="M510.56 264.34C510.56 262.35 512.16 260.75 514.14 260.75L526.09 260.75C528.07 260.75 529.67 262.35 529.67 264.34C529.67 266.31 528.07 267.92 526.09 267.92L514.14 267.92C512.16 267.92 510.56 266.31 510.56 264.34Z"
            fill="url(#paint_linear_757_706_0__hero-Illustration)" fill-opacity="1.000000" fill-rule="nonzero" />
        <path
            d="M536.84 264.34C536.84 262.35 538.44 260.75 540.42 260.75L591.4 260.75C593.38 260.75 594.98 262.35 594.98 264.34C594.98 266.31 593.38 267.92 591.4 267.92L540.42 267.92C538.44 267.92 536.84 266.31 536.84 264.34Z"
            fill="url(#paint_linear_757_707_0__hero-Illustration)" fill-opacity="1.000000" fill-rule="nonzero" />
        <path
            d="M481.88 264.34C481.88 262.35 483.48 260.75 485.46 260.75L502.19 260.75C504.17 260.75 505.78 262.35 505.78 264.34C505.78 266.31 504.17 267.92 502.19 267.92L485.46 267.92C483.48 267.92 481.88 266.31 481.88 264.34Z"
            fill="url(#paint_linear_757_708_0__hero-Illustration)" fill-opacity="1.000000" fill-rule="nonzero" />
        <path
            d="M481.88 246.41C481.88 244.43 483.48 242.83 485.46 242.83L543.61 242.83C545.59 242.83 547.19 244.43 547.19 246.41C547.19 248.39 545.59 250 543.61 250L485.46 250C483.48 250 481.88 248.39 481.88 246.41Z"
            fill="url(#paint_linear_757_709_0__hero-Illustration)" fill-opacity="1.000000" fill-rule="nonzero" />
        <path
            d="M552.77 246.41C552.77 244.43 554.37 242.83 556.35 242.83L583.43 242.83C585.41 242.83 587.02 244.43 587.02 246.41C587.02 248.39 585.41 250 583.43 250L556.35 250C554.37 250 552.77 248.39 552.77 246.41Z"
            fill="url(#paint_linear_757_710_0__hero-Illustration)" fill-opacity="1.000000" fill-rule="nonzero" />
        <path
            d="M481.88 282.26C481.88 280.28 483.48 278.67 485.46 278.67L543.61 278.67C545.59 278.67 547.19 280.28 547.19 282.26C547.19 284.24 545.59 285.84 543.61 285.84L485.46 285.84C483.48 285.84 481.88 284.24 481.88 282.26Z"
            fill="url(#paint_linear_757_711_0__hero-Illustration)" fill-opacity="1.000000" fill-rule="nonzero" />
        <path
            d="M123.34 33.8C123.34 37.19 120.59 39.94 117.19 39.94C113.8 39.94 111.05 37.19 111.05 33.8C111.05 30.41 113.8 27.66 117.19 27.66C120.59 27.66 123.34 30.41 123.34 33.8Z"
            fill="#FED280" fill-opacity="1.000000" fill-rule="nonzero" />
        <path
            d="M144.85 33.8C144.85 37.19 142.1 39.94 138.7 39.94C135.31 39.94 132.56 37.19 132.56 33.8C132.56 30.41 135.31 27.66 138.7 27.66C142.1 27.66 144.85 30.41 144.85 33.8Z"
            fill="#8CFEE3" fill-opacity="0.900000" fill-rule="nonzero" />
        <path
            d="M166.36 33.8C166.36 37.19 163.61 39.94 160.22 39.94C156.82 39.94 154.07 37.19 154.07 33.8C154.07 30.41 156.82 27.66 160.22 27.66C163.61 27.66 166.36 30.41 166.36 33.8Z"
            fill="#FF8DA9" fill-opacity="0.900000" fill-rule="nonzero" />
        <path
            d="M41.64 153.25L29.79 171.85C28.1 174.52 30.01 178 33.17 178L70.91 178C74.17 178 76.06 174.3 74.14 171.65L67.45 162.42C65.97 160.38 62.99 160.2 61.28 162.05L61.15 162.19C59.47 164.01 56.55 163.87 55.04 161.9L48.19 152.97C46.5 150.76 43.13 150.91 41.64 153.25Z"
            fill="#FFFFFF" fill-opacity="1.000000" fill-rule="nonzero" />
        <path
            d="M71.47 140.02C71.47 143.24 68.87 145.85 65.65 145.85C62.43 145.85 59.83 143.24 59.83 140.02C59.83 136.81 62.43 134.2 65.65 134.2C68.87 134.2 71.47 136.81 71.47 140.02Z"
            fill="#C4C5DC" fill-opacity="1.000000" fill-rule="nonzero" />
        <path
            d="M192.43 153.22C192.43 152.6 192.93 152.1 193.55 152.1L327.07 152.1L327.07 178.48C327.07 179.1 326.57 179.6 325.96 179.6C325.34 179.6 324.84 179.1 324.84 178.48L324.84 154.34L193.55 154.34C192.93 154.34 192.43 153.84 192.43 153.22Z"
            fill="url(#paint_linear_757_717_0__hero-Illustration)" fill-opacity="1.000000" fill-rule="evenodd" />
        <path
            d="M467.07 255.37C467.07 255.99 466.57 256.49 465.95 256.49L325.25 256.49L325.25 231.12C325.25 230.5 325.75 230 326.37 230C326.99 230 327.49 230.5 327.49 231.12L327.49 254.25L465.95 254.25C466.57 254.25 467.07 254.76 467.07 255.37Z"
            fill="url(#paint_linear_757_718_0__hero-Illustration)" fill-opacity="1.000000" fill-rule="evenodd" />
        <g filter="url(#filter_757_719_dd__hero-Illustration)">
            <path
                d="M324.05 199.55C324.04 199.77 324.08 199.87 324.28 199.87L329.06 199.87C329.92 199.93 330.69 200.15 331.35 200.57C331.8 200.86 332.13 201.21 332.38 201.59C332.83 202.27 333.08 203.26 333.21 204.05C333.27 204.39 333.3 204.71 333.24 204.86C333.21 204.93 333.16 204.98 333.1 205C332.77 205.13 332.43 204.7 332.24 204.49C331.36 203.52 330.08 203.12 328.57 203.04L324.21 203.04C324.06 203.07 324 203.18 324.02 203.34L324.02 204.51C324.01 204.89 323.8 205.03 323.39 204.9L319.64 202.1L319.27 201.83L319.17 201.76C318.87 201.5 318.99 201.27 319.26 201.07L319.55 200.85L323.15 198.17C323.59 197.84 324.05 197.75 324.05 198.46L324.05 199.55ZM328.23 211.42C328.24 211.21 328.2 211.1 328 211.1L323.23 211.1C322.36 211.04 321.59 210.82 320.94 210.4C320.48 210.11 320.15 209.76 319.9 209.37C319.44 208.67 319.15 207.53 319.04 206.72C319.01 206.46 319 206.23 319.05 206.11C319.08 206.04 319.12 205.99 319.18 205.97C319.51 205.85 319.85 206.27 320.04 206.48C320.92 207.45 322.2 207.86 323.71 207.93L328.07 207.93C328.23 207.91 328.28 207.8 328.27 207.63L328.27 206.46C328.28 206.08 328.48 205.95 328.89 206.08L332.65 208.87L333.02 209.14L333.11 209.21C333.41 209.47 333.29 209.7 333.02 209.91L332.73 210.12L329.13 212.8C328.69 213.13 328.23 213.22 328.23 212.51L328.23 211.42Z"
                fill="#88F1DB" fill-opacity="1.000000" fill-rule="evenodd" />
        </g>
        <circle cx="326.000000" cy="205.000000" r="19.000000" stroke="#FFFFFF" stroke-opacity="1.000000"
            stroke-width="2.000000" />
        <path
            d="M248.21 153.22C248.21 158.17 244.19 162.18 239.25 162.18C234.3 162.18 230.29 158.17 230.29 153.22C230.29 148.27 234.3 144.26 239.25 144.26C244.19 144.26 248.21 148.27 248.21 153.22Z"
            fill="#383A68" fill-opacity="1.000000" fill-rule="nonzero" />
        <path
            d="M239.25 160.39C243.21 160.39 246.41 157.18 246.41 153.22C246.41 149.26 243.21 146.05 239.25 146.05C235.29 146.05 232.08 149.26 232.08 153.22C232.08 157.18 235.29 160.39 239.25 160.39ZM239.25 162.18C244.19 162.18 248.21 158.17 248.21 153.22C248.21 148.27 244.19 144.26 239.25 144.26C234.3 144.26 230.29 148.27 230.29 153.22C230.29 158.17 234.3 162.18 239.25 162.18Z"
            fill="#63648A" fill-opacity="1.000000" fill-rule="evenodd" />
        <path
            d="M443.55 255.38C443.55 260.32 439.54 264.34 434.59 264.34C429.64 264.34 425.63 260.32 425.63 255.38C425.63 250.43 429.64 246.41 434.59 246.41C439.54 246.41 443.55 250.43 443.55 255.38Z"
            fill="#383A68" fill-opacity="1.000000" fill-rule="nonzero" />
        <path
            d="M434.59 262.54C438.55 262.54 441.76 259.33 441.76 255.38C441.76 251.42 438.55 248.21 434.59 248.21C430.63 248.21 427.42 251.42 427.42 255.38C427.42 259.33 430.63 262.54 434.59 262.54ZM434.59 264.34C439.54 264.34 443.55 260.32 443.55 255.38C443.55 250.43 439.54 246.41 434.59 246.41C429.64 246.41 425.63 250.43 425.63 255.38C425.63 260.32 429.64 264.34 434.59 264.34Z"
            fill="#63648A" fill-opacity="1.000000" fill-rule="evenodd" />
        <path
            d="M134.41 165.32C134.41 161.61 137.42 158.6 141.13 158.6L160.47 158.6C164.18 158.6 167.19 161.61 167.19 165.32L167.19 184.65C167.19 188.37 164.18 191.38 160.47 191.38L141.13 191.38C137.42 191.38 134.41 188.37 134.41 184.65L134.41 165.32Z"
            fill="#767799" fill-opacity="1.000000" fill-rule="nonzero" />
        <path d="M154.06 184.39L148 184.39L148 181.87L154.06 181.87L154.06 184.39Z" fill="#FFFFFF"
            fill-opacity="1.000000" fill-rule="evenodd" />
        <path
            d="M142.39 167.42L159.21 167.42L159.21 171.48L156.68 171.48L156.68 169.95L144.91 169.95L144.91 171.48L142.39 171.48L142.39 167.42Z"
            fill="#FFFFFF" fill-opacity="1.000000" fill-rule="evenodd" />
        <path d="M149.69 183.27L149.85 168.83L152.37 168.85L152.22 183.3L149.69 183.27Z" fill="#FFFFFF"
            fill-opacity="1.000000" fill-rule="evenodd" />
    </symbol>
    <symbol id="info" viewBox="0 0 35 35" fill="none" xmlns="http://www.w3.org/2000/svg">
        <defs>
            <clipPath id="clip757_984__info">
                <rect id="Icon__info" fill="white" fill-opacity="0" />
            </clipPath>
        </defs>
        <rect id="Icon__info" fill="#FFFFFF" fill-opacity="0" />
        <g clip-path="url(#clip757_984__info)">
            <path id="Vector__info"
                d="M34.99 23.68C34.99 19.34 32.5 15.46 28.77 13.58C28.66 21.9 21.9 28.66 13.58 28.77C15.46 32.5 19.34 34.99 23.68 34.99C25.72 34.99 27.7 34.45 29.44 33.42L34.95 34.95L33.42 29.44C34.45 27.7 34.99 25.72 34.99 23.68Z"
                fill="#2405F2" fill-opacity="1.000000" fill-rule="nonzero" />
            <path id="Vector__info"
                d="M26.72 13.36C26.72 5.99 20.73 0 13.36 0C5.99 0 0 5.99 0 13.36C0 15.76 0.63 18.1 1.85 20.15L0.04 26.67L6.57 24.87C8.62 26.08 10.96 26.72 13.36 26.72C20.73 26.72 26.72 20.73 26.72 13.36ZM11.31 10.25L9.26 10.25C9.26 7.99 11.1 6.15 13.36 6.15C15.62 6.15 17.46 7.99 17.46 10.25C17.46 11.4 16.97 12.5 16.13 13.28L14.38 14.87L14.38 16.47L12.33 16.47L12.33 13.97L14.74 11.76C15.17 11.37 15.41 10.83 15.41 10.25C15.41 9.12 14.49 8.2 13.36 8.2C12.23 8.2 11.31 9.12 11.31 10.25ZM12.33 18.52L14.38 18.52L14.38 20.57L12.33 20.57L12.33 18.52Z"
                fill="#2405F2" fill-opacity="1.000000" fill-rule="nonzero" />
        </g>
    </symbol>
    <symbol id="logo" viewBox="0 0 122 25" xmlns="http://www.w3.org/2000/svg">
        <defs>
            <clipPath id="clip8_201__Logo">
                <rect id="Logo__Logo" fill="white" fill-opacity="0" />
            </clipPath>
        </defs>
        <rect id="Logo__Logo" fill="#FFFFFF" fill-opacity="0" />
        <g clip-path="url(#clip8_201__Logo)">
            <path id="t__Logo"
                d="M121.78 18.87L121.78 21.89L119.25 21.89C116.54 21.8 115.1 20.34 115.1 17.6L115.1 10.71L113.33 10.71L113.33 8.06L115.1 8.06L115.1 5.09L118.84 5.09L118.84 8.03L121.69 8.03L121.69 10.67L118.84 10.67L118.84 17.23C118.84 18.12 119.02 18.83 120.38 18.83L121.78 18.87Z"
                fill="#FFFFFF" fill-opacity="1.000000" fill-rule="nonzero" />
            <path id="e__Logo"
                d="M98.44 15L98.44 14.8C98.4 13.91 98.53 13.02 98.83 12.19C99.14 11.35 99.6 10.58 100.2 9.93C100.8 9.27 101.53 8.74 102.33 8.37C103.14 7.99 104.01 7.78 104.9 7.74C105.08 7.74 105.26 7.74 105.44 7.74C108.97 7.74 112.07 9.79 112.07 14.69L112.07 15.73L102.26 15.73C102.36 17.99 103.58 19.26 105.63 19.26C107.4 19.26 108.23 18.49 108.47 17.36L112 17.36C111.56 20.3 109.22 21.94 105.5 21.94C101.43 21.91 98.44 19.33 98.44 15ZM108.39 13.37C108.26 11.32 107.22 10.33 105.43 10.33C103.63 10.33 102.59 11.44 102.34 13.37L108.39 13.37Z"
                fill="#FFFFFF" fill-opacity="1.000000" fill-rule="nonzero" />
            <path id="e__Logo"
                d="M83.18 15L83.18 14.8C83.14 13.91 83.27 13.02 83.58 12.19C83.88 11.36 84.34 10.59 84.94 9.93C85.54 9.28 86.26 8.75 87.07 8.37C87.87 7.99 88.74 7.78 89.63 7.74C89.8 7.74 89.99 7.74 90.17 7.74C93.7 7.74 96.8 9.79 96.8 14.69L96.8 15.73L87 15.73C87.1 17.99 88.32 19.26 90.37 19.26C92.14 19.26 92.97 18.49 93.21 17.36L96.74 17.36C96.3 20.3 93.95 21.94 90.24 21.94C86.17 21.91 83.18 19.33 83.18 15ZM93.13 13.37C93 11.32 91.97 10.33 90.17 10.33C88.37 10.33 87.36 11.47 87.08 13.36L93.13 13.37Z"
                fill="#FFFFFF" fill-opacity="1.000000" fill-rule="nonzero" />
            <path id="w__Logo"
                d="M61.77 8.03L65.72 8.03L68.14 17.18L70.79 8.03L73.87 8.03L76.27 17.18L78.82 8.03L82.44 8.03L78.14 21.63L74.44 21.63L72.12 13.09L69.64 21.63L65.89 21.63L61.77 8.03Z"
                fill="#FFFFFF" fill-opacity="1.000000" fill-rule="nonzero" />
            <path id="s__Logo"
                d="M49.2 17.35L52.73 17.35C52.89 18.58 53.5 19.28 55.13 19.28C56.58 19.28 57.25 18.74 57.25 17.8C57.25 16.87 56.48 16.47 54.5 16.2C50.88 15.65 49.48 14.6 49.48 11.95C49.48 9.11 52.08 7.71 54.89 7.71C57.91 7.71 60.18 8.81 60.51 11.93L57.03 11.93C57 11.69 56.93 11.46 56.82 11.24C56.71 11.03 56.55 10.84 56.36 10.68C56.18 10.53 55.96 10.41 55.73 10.34C55.5 10.27 55.25 10.25 55.01 10.27L54.89 10.27C53.67 10.27 52.96 10.84 52.96 11.68C52.96 12.51 53.62 12.87 55.61 13.16C59 13.67 60.89 14.53 60.89 17.44C60.89 20.35 58.75 21.91 55.16 21.91C51.58 21.91 49.3 20.29 49.2 17.35Z"
                fill="#FFFFFF" fill-opacity="1.000000" fill-rule="nonzero" />
            <path id="n__Logo"
                d="M34.21 8.03L37.95 8.03L37.95 10.18C38.37 9.39 39.01 8.74 39.79 8.3C40.57 7.86 41.46 7.66 42.36 7.71C45 7.71 46.93 9.32 46.93 13.01L46.93 21.66L43.24 21.66L43.24 13.55C43.24 11.7 42.52 10.82 40.85 10.82C40.5 10.79 40.14 10.83 39.8 10.94C39.47 11.04 39.15 11.21 38.88 11.44C38.61 11.67 38.39 11.95 38.23 12.27C38.07 12.58 37.97 12.92 37.94 13.28C37.92 13.44 37.92 13.61 37.94 13.77L37.94 21.63L34.21 21.63L34.21 8.03Z"
                fill="#FFFFFF" fill-opacity="1.000000" fill-rule="nonzero" />
            <path id="i__Logo"
                d="M27 4.6C26.98 4.23 27.08 3.86 27.28 3.55C27.47 3.23 27.76 2.98 28.1 2.82C28.44 2.67 28.81 2.62 29.18 2.68C29.55 2.74 29.89 2.9 30.16 3.16C30.44 3.41 30.63 3.74 30.71 4.11C30.8 4.47 30.78 4.85 30.64 5.2C30.51 5.55 30.28 5.85 29.98 6.07C29.68 6.28 29.32 6.41 28.94 6.42L28.87 6.42C28.64 6.43 28.41 6.4 28.19 6.33C27.97 6.25 27.77 6.13 27.6 5.98C27.42 5.83 27.28 5.64 27.18 5.43C27.08 5.22 27.02 5 27 4.77C27 4.71 27 4.66 27 4.6ZM27 8.03L30.77 8.03L30.77 21.63L27.01 21.63L27 8.03Z"
                fill="#FFFFFF" fill-opacity="1.000000" fill-rule="nonzero" />
            <path id="F__Logo"
                d="M12.77 3.04L24.7 3.04L24.7 6.33L16.98 6.33L16.98 11.25L23.1 11.25L23.1 14.43L16.97 14.43L16.97 21.63L12.77 21.63L12.77 3.04Z"
                fill="#FFFFFF" fill-opacity="1.000000" fill-rule="nonzero" />
            <path id="{__Logo"
                d="M5.56 9.12C5.56 10.29 5.56 11.71 3.96 12.29C5.6 12.85 5.56 14.05 5.56 15.3L5.56 19.93C5.56 20.81 5.92 21.34 6.55 21.48C6.69 21.52 6.84 21.54 6.98 21.54L8.53 21.54L8.53 24.63L5.98 24.63C3.26 24.63 1.76 23.08 1.76 20.22L1.76 14.74C1.74 14.45 1.62 14.19 1.42 14C1.21 13.8 0.94 13.69 0.66 13.69L0 13.69L0 10.98L0.66 10.98C0.95 10.97 1.22 10.86 1.43 10.66C1.63 10.45 1.75 10.18 1.76 9.89L1.76 4.33C1.76 1.52 3.23 0 5.98 0L8.55 0L8.55 3.04L7.01 3.04C6.86 3.04 6.71 3.06 6.57 3.11C5.94 3.27 5.59 3.79 5.59 4.65L5.56 9.12Z"
                fill="#FFFFFF" fill-opacity="1.000000" fill-rule="nonzero" />
        </g>
    </symbol>
    <symbol id="num-box" viewBox="0 0 50 50" xmlns="http://www.w3.org/2000/svg">
        <defs />
        <rect rx="8.000000" width="50.000000" height="50.000000" fill="#2405F2" fill-opacity="1.000000" />
        <mask id="mask706_689__num-box" mask-type="alpha" maskUnits="userSpaceOnUse" x="0.000000" y="0.000000"
            width="50.000000" height="50.000000">
            <rect rx="8.000000" width="50.000000" height="50.000000" fill="#5C5E84" fill-opacity="1.000000" />
        </mask>
        <g mask="url(#mask706_689__num-box)">
            <rect x="-26.000000" y="27.000000" rx="8.000000" width="50.000000" height="50.000000" fill="#FCD980"
                fill-opacity="1.000000" />
        </g>
        <g mask="url(#mask706_689__num-box)">
            <rect x="8.000000" y="-9.000000" rx="8.000000" width="50.000000" height="50.000000" fill="#5239FA"
                fill-opacity="1.000000" />
        </g>
    </symbol>
    <symbol id="successful" viewBox="0 0 32 32" fill="none" xmlns="http://www.w3.org/2000/svg">
        <defs />
        <path id="Icon__successful"
            d="M16 0C7.21 0 0 7.21 0 16C0 24.78 7.21 32 16 32C24.78 32 32 24.78 32 16C32 7.21 24.78 0 16 0ZM14.06 23.27L7.05 16.27L9.7 13.61L14.18 18.09L23.17 9.92L25.69 12.69L14.06 23.27Z"
            fill="#2405F2" fill-opacity="1.000000" fill-rule="nonzero" />
    </symbol>
    <symbol id="timer" viewBox="0 0 30 35" fill="none" xmlns="http://www.w3.org/2000/svg">
        <defs />
        <path id="Vector__timer"
            d="M26.3 9.94L28.65 7.59C29.22 7.02 29.22 6.1 28.65 5.53C28.08 4.96 27.16 4.96 26.59 5.53L24.24 7.88C21.94 5.98 19.08 4.74 15.95 4.44L15.95 2.91L18.87 2.91C19.68 2.91 20.33 2.26 20.33 1.45C20.33 0.65 19.68 0 18.87 0L10.12 0C9.31 0 8.66 0.65 8.66 1.45C8.66 2.26 9.31 2.91 10.12 2.91L13.04 2.91L13.04 4.44C5.28 5.18 -0.82 11.73 -0.82 19.68C-0.82 28.13 6.05 35 14.5 35C22.94 35 29.81 28.13 29.81 19.68C29.81 15.98 28.49 12.59 26.3 9.94ZM15.95 19.68C15.95 20.49 15.3 21.14 14.5 21.14C13.69 21.14 13.04 20.49 13.04 19.68L13.04 11.66C13.04 10.86 13.69 10.2 14.5 10.2C15.3 10.2 15.95 10.86 15.95 11.66L15.95 19.68Z"
            fill="#2405F2" fill-opacity="1.000000" fill-rule="nonzero" />
    </symbol>
    <symbol id="workers" viewBox="0 0 32 28" fill="none" xmlns="http://www.w3.org/2000/svg">
        <defs />
        <path id="Vector__workers"
            d="M21.43 5.43C21.43 8.44 19 10.87 16 10.87C12.99 10.87 10.56 8.44 10.56 5.43C10.56 2.43 12.99 0 16 0C19 0 21.43 2.43 21.43 5.43Z"
            fill="#2405F2" fill-opacity="1.000000" fill-rule="evenodd" />
        <path id="Vector__workers"
            d="M30.43 7.43C30.43 9.33 28.89 10.87 27 10.87C25.1 10.87 23.56 9.33 23.56 7.43C23.56 5.53 25.1 4 27 4C28.89 4 30.43 5.53 30.43 7.43Z"
            fill="#2405F2" fill-opacity="1.000000" fill-rule="evenodd" />
        <path id="Vector__workers"
            d="M8.43 7.43C8.43 9.33 6.89 10.87 5 10.87C3.1 10.87 1.56 9.33 1.56 7.43C1.56 5.53 3.1 4 5 4C6.89 4 8.43 5.53 8.43 7.43Z"
            fill="#2405F2" fill-opacity="1.000000" fill-rule="evenodd" />
        <path id="Vector__workers"
            d="M8.38 13.96C7.03 12.85 5.8 13 4.24 13C1.9 13 0 14.89 0 17.21L0 24.04C0 25.05 0.82 25.87 1.83 25.87C6.21 25.87 5.68 25.95 5.68 25.68C5.68 20.84 5.11 17.3 8.38 13.96Z"
            fill="#2405F2" fill-opacity="1.000000" fill-rule="nonzero" />
        <path id="Vector__workers"
            d="M17.48 13.02C14.75 12.79 12.37 13.02 10.33 14.71C6.9 17.46 7.56 21.16 7.56 25.68C7.56 26.88 8.53 27.87 9.75 27.87C22.94 27.87 23.46 28.3 24.25 26.56C24.5 25.98 24.43 26.16 24.43 20.56C24.43 16.11 20.58 13.02 17.48 13.02Z"
            fill="#2405F2" fill-opacity="1.000000" fill-rule="nonzero" />
        <path id="Vector__workers"
            d="M27.75 13C26.18 13 24.96 12.85 23.61 13.96C26.86 17.27 26.31 20.58 26.31 25.68C26.31 25.95 25.87 25.87 30.09 25.87C31.14 25.87 32 25.02 32 23.97L32 17.21C32 14.89 30.09 13 27.75 13Z"
            fill="#2405F2" fill-opacity="1.000000" fill-rule="nonzero" />
    </symbol>
    <symbol id="list" viewBox="0 0 35 34" fill="none" xmlns="http://www.w3.org/2000/svg"
        xmlns:xlink="http://www.w3.org/1999/xlink">
        <desc>
            Created with Pixso.
        </desc>
        <defs />
        <path id="Vector"
            d="M25.86 5.8C25.86 5 25.55 4.25 24.99 3.69L22.17 0.87C21.61 0.31 20.82 0 20.04 0L19.87 0L19.87 5.97L25.86 5.97L25.86 5.8Z"
            fill="#2405F2" fill-opacity="1.000000" fill-rule="nonzero" />
        <path id="Vector"
            d="M18.19 20.55C18.38 19.97 18.71 19.43 19.14 19L25.89 12.28L25.89 7.96L18.89 7.96C18.34 7.96 17.92 7.52 17.92 6.97L17.92 0L2.98 0C1.34 0 0 1.34 0 2.98L0 31.01C0 32.65 1.34 34 2.98 34L22.87 34C24.52 34 25.89 32.65 25.89 31.01L25.89 23.57L24.79 24.64C24.35 25.08 23.83 25.4 23.24 25.6L20.08 26.65L19.59 26.68C18.8 26.68 18.04 26.29 17.57 25.64C17.11 25 16.98 24.16 17.24 23.4L18.19 20.55ZM4.98 17.92L14.9 17.92C15.46 17.92 15.9 18.37 15.9 18.92C15.9 19.47 15.46 19.92 14.9 19.92L4.98 19.92C4.42 19.92 3.98 19.47 3.98 18.92C3.98 18.37 4.42 17.92 4.98 17.92ZM3.98 14.94C3.98 14.39 4.42 13.94 4.98 13.94L14.9 13.94C15.46 13.94 15.9 14.39 15.9 14.94C15.9 15.49 15.46 15.93 14.9 15.93L4.98 15.93C4.42 15.93 3.98 15.49 3.98 14.94ZM3.98 22.91C3.98 22.35 4.42 21.91 4.98 21.91L14.9 21.91C15.46 21.91 15.9 22.35 15.9 22.91C15.9 23.46 15.46 23.9 14.9 23.9L4.98 23.9C4.42 23.9 3.98 23.46 3.98 22.91ZM18.89 27.89C19.44 27.89 19.88 28.33 19.88 28.88C19.88 29.43 19.44 29.88 18.89 29.88L12.91 29.88C12.36 29.88 11.92 29.43 11.92 28.88C11.92 28.33 12.36 27.89 12.91 27.89L18.89 27.89ZM4.98 11.95C4.42 11.95 3.98 11.5 3.98 10.95C3.98 10.4 4.42 9.96 4.98 9.96L18.89 9.96C19.44 9.96 19.88 10.4 19.88 10.95C19.88 11.5 19.44 11.95 18.89 11.95L4.98 11.95Z"
            fill="#2405F2" fill-opacity="1.000000" fill-rule="nonzero" />
        <path id="Vector" d="M19.99 21.43L19.12 24.03C18.99 24.42 19.37 24.79 19.75 24.66L22.35 23.79L19.99 21.43Z"
            fill="#2405F2" fill-opacity="1.000000" fill-rule="nonzero" />
        <path id="Vector" d="M27.73 13.23L21.17 19.79L24 22.62C25.48 21.14 28.36 18.25 30.56 16.06L27.73 13.23Z"
            fill="#2405F2" fill-opacity="1.000000" fill-rule="nonzero" />
        <path id="Vector"
            d="M33.41 10.37C33.06 10.02 32.54 9.82 32 9.82C31.45 9.82 30.94 10.02 30.58 10.37L29.14 11.82L31.96 14.65C32.76 13.86 33.3 13.31 33.41 13.2C34.19 12.42 34.19 11.15 33.41 10.37Z"
            fill="#2405F2" fill-opacity="1.000000" fill-rule="nonzero" />
    </symbol>
    <symbol id="rule" viewBox="0 0 35 35" fill="none" xmlns="http://www.w3.org/2000/svg"
        xmlns:xlink="http://www.w3.org/1999/xlink">
        <desc>
            Created with Pixso.
        </desc>
        <defs>
            <clipPath id="clip757_976">
                <rect id="Icon" fill="white" fill-opacity="0" />
            </clipPath>
        </defs>
        <rect id="Icon" fill="#FFFFFF" fill-opacity="0" />
        <g clip-path="url(#clip757_976)">
            <path id="Vector"
                d="M2.64 9.89L9.89 2.64L8.68 1.43C6.68 -0.57 3.43 -0.57 1.43 1.43C0.46 2.4 -0.07 3.68 -0.07 5.05C-0.07 6.42 0.46 7.71 1.43 8.68L2.64 9.89Z"
                fill="#2405F2" fill-opacity="1.000000" fill-rule="nonzero" />
            <path id="Vector" d="M4.09 11.34L6.99 8.44L11.14 12.59L8.24 15.49L4.09 11.34Z" fill="#2405F2"
                fill-opacity="1.000000" fill-rule="nonzero" />
            <path id="Vector" d="M8.44 6.99L11.34 4.09L15.49 8.24L12.59 11.14L8.44 6.99Z" fill="#2405F2"
                fill-opacity="1.000000" fill-rule="nonzero" />
            <path id="Vector"
                d="M24.96 30.76C24.96 30.76 24.96 30.76 24.96 30.76L24.48 31.24L33.52 34.85C33.64 34.9 33.77 34.93 33.9 34.93C34.17 34.93 34.43 34.82 34.63 34.63C34.92 34.34 35.01 33.9 34.85 33.52L31.24 24.48L24.96 30.76Z"
                fill="#2405F2" fill-opacity="1.000000" fill-rule="nonzero" />
            <path id="Vector" d="M19.36 26.61L22.26 23.71L25.68 27.13L22.78 30.03L19.36 26.61Z" fill="#2405F2"
                fill-opacity="1.000000" fill-rule="nonzero" />
            <path id="Vector" d="M23.71 22.26L26.61 19.36L30.03 22.78L27.13 25.68L23.71 22.26Z" fill="#2405F2"
                fill-opacity="1.000000" fill-rule="nonzero" />
            <path id="Vector"
                d="M8.8 27.5C8.4 27.9 8.4 28.55 8.8 28.95L11.46 31.61L8.44 34.63C8.04 35.03 7.39 35.03 6.99 34.63L0.23 27.86C-0.17 27.46 -0.17 26.81 0.23 26.41L26.41 0.23C26.81 -0.17 27.46 -0.17 27.86 0.23L34.63 6.99C34.83 7.19 34.93 7.46 34.93 7.72C34.93 7.98 34.83 8.24 34.63 8.44L31.61 11.46L27.99 7.83C27.58 7.43 26.94 7.43 26.54 7.83C26.14 8.23 26.14 8.88 26.54 9.28L30.16 12.91L27.87 15.2L25.21 12.54C24.81 12.14 24.16 12.14 23.76 12.54C23.36 12.94 23.36 13.59 23.76 13.99L26.42 16.65L24.13 18.94L20.51 15.31C20.1 14.91 19.46 14.91 19.05 15.31C18.66 15.72 18.66 16.36 19.05 16.76L22.68 20.39L20.39 22.68L17.73 20.02C17.33 19.62 16.68 19.62 16.28 20.02C15.88 20.42 15.88 21.07 16.28 21.47L18.94 24.13L16.65 26.42L13.02 22.8C12.62 22.4 11.98 22.4 11.57 22.8C11.17 23.2 11.17 23.84 11.57 24.25L15.2 27.87L12.91 30.16L10.25 27.5C9.85 27.1 9.2 27.1 8.8 27.5Z"
                fill="#2405F2" fill-opacity="1.000000" fill-rule="nonzero" />
        </g>
    </symbol>
    <symbol id="facebook" viewBox="0 0 16 16" xmlns="http://www.w3.org/2000/svg"
        xmlns:xlink="http://www.w3.org/1999/xlink">
        <desc>
            Created with Pixso.
        </desc>
        <defs />
        <path id="Vector"
            d="M16 8C16 3.58 12.41 0 8 0C3.58 0 0 3.58 0 8C0 11.99 2.92 15.3 6.75 15.9L6.75 10.31L4.71 10.31L4.71 8L6.75 8L6.75 6.23C6.75 4.23 7.94 3.12 9.77 3.12C10.64 3.12 11.56 3.28 11.56 3.28L11.56 5.25L10.55 5.25C9.55 5.25 9.25 5.86 9.25 6.5L9.25 8L11.46 8L11.11 10.31L9.25 10.31L9.25 15.9C13.07 15.3 16 11.99 16 8Z"
            fill-opacity="1.000000" fill-rule="nonzero" />
    </symbol>
    <symbol id="twitter" viewBox="0 0 16 13" xmlns="http://www.w3.org/2000/svg"
        xmlns:xlink="http://www.w3.org/1999/xlink">
        <desc>
            Created with Pixso.
        </desc>
        <defs />
        <path id="Vector"
            d="M4.69 12.5C10.73 12.5 14.03 7.49 14.03 3.16C14.03 3.02 14.03 2.87 14.02 2.73C14.67 2.27 15.22 1.69 15.66 1.03C15.06 1.3 14.43 1.47 13.78 1.55C14.46 1.14 14.97 0.49 15.22 -0.27C14.58 0.11 13.87 0.38 13.14 0.53C12.64 0 11.99 -0.34 11.27 -0.46C10.56 -0.58 9.83 -0.46 9.19 -0.12C8.56 0.22 8.05 0.76 7.75 1.42C7.45 2.08 7.38 2.82 7.54 3.52C6.24 3.46 4.96 3.12 3.79 2.53C2.63 1.94 1.6 1.11 0.78 0.09C0.36 0.82 0.23 1.67 0.42 2.49C0.61 3.3 1.1 4.01 1.79 4.48C1.27 4.46 0.76 4.32 0.3 4.07L0.3 4.11C0.3 4.86 0.57 5.6 1.05 6.19C1.53 6.77 2.2 7.18 2.94 7.33C2.46 7.46 1.95 7.48 1.46 7.38C1.67 8.03 2.08 8.6 2.62 9.01C3.17 9.42 3.84 9.65 4.52 9.66C3.36 10.58 1.92 11.07 0.45 11.07C0.18 11.07 -0.08 11.05 -0.34 11.02C1.16 11.99 2.91 12.5 4.69 12.5Z"
            fill-opacity="1.000000" fill-rule="nonzero" />
    </symbol>
    <symbol id="intagram" viewBox="0 0 16 16" xmlns="http://www.w3.org/2000/svg"
        xmlns:xlink="http://www.w3.org/1999/xlink">
        <desc>
            Created with Pixso.
        </desc>
        <defs />
        <path id="Vector"
            d="M7.33 1.44C9.47 1.44 9.72 1.44 10.56 1.48C11.34 1.52 11.76 1.65 12.04 1.76C12.42 1.9 12.69 2.08 12.96 2.35C13.25 2.64 13.42 2.9 13.56 3.27C13.67 3.55 13.8 3.98 13.83 4.76C13.87 5.6 13.88 5.85 13.88 7.99C13.88 10.13 13.87 10.38 13.83 11.22C13.8 12 13.67 12.42 13.56 12.7C13.42 13.08 13.24 13.34 12.96 13.62C12.68 13.91 12.42 14.08 12.04 14.22C11.76 14.33 11.34 14.46 10.56 14.5C9.72 14.53 9.46 14.54 7.33 14.54C5.19 14.54 4.94 14.53 4.1 14.5C3.32 14.46 2.89 14.33 2.61 14.22C2.24 14.08 1.97 13.9 1.69 13.62C1.41 13.34 1.24 13.08 1.1 12.7C0.99 12.42 0.86 12 0.82 11.22C0.79 10.38 0.78 10.12 0.78 7.99C0.78 5.85 0.79 5.6 0.82 4.76C0.86 3.98 0.99 3.55 1.1 3.27C1.24 2.9 1.42 2.63 1.69 2.35C1.98 2.07 2.24 1.9 2.61 1.76C2.89 1.65 3.32 1.52 4.1 1.48C4.94 1.44 5.19 1.44 7.33 1.44ZM7.33 0C5.16 0 4.89 0 4.03 0.04C3.18 0.08 2.6 0.22 2.09 0.41C1.56 0.62 1.12 0.89 0.67 1.34C0.23 1.78 -0.05 2.23 -0.25 2.75C-0.45 3.26 -0.59 3.84 -0.62 4.69C-0.66 5.55 -0.67 5.82 -0.67 8C-0.67 10.17 -0.66 10.44 -0.62 11.29C-0.59 12.14 -0.45 12.73 -0.25 13.23C-0.05 13.76 0.23 14.21 0.67 14.65C1.12 15.09 1.56 15.37 2.09 15.57C2.6 15.77 3.18 15.91 4.03 15.94C4.88 15.98 5.15 15.99 7.33 15.99C9.5 15.99 9.77 15.98 10.62 15.94C11.47 15.91 12.06 15.77 12.56 15.57C13.09 15.37 13.54 15.09 13.98 14.65C14.42 14.21 14.7 13.76 14.9 13.24C15.1 12.73 15.24 12.15 15.27 11.3C15.31 10.44 15.32 10.17 15.32 8C15.32 5.83 15.31 5.55 15.27 4.7C15.24 3.85 15.1 3.27 14.9 2.76C14.7 2.23 14.43 1.78 13.99 1.34C13.54 0.9 13.09 0.62 12.57 0.42C12.06 0.22 11.48 0.08 10.63 0.05C9.77 0 9.5 0 7.33 0Z"
            fill-opacity="1.000000" fill-rule="nonzero" />
        <path id="Vector"
            d="M7.33 3.89C5.06 3.89 3.22 5.73 3.22 8C3.22 10.26 5.06 12.1 7.33 12.1C9.6 12.1 11.44 10.26 11.44 8C11.44 5.73 9.6 3.89 7.33 3.89ZM7.33 10.66C5.86 10.66 4.66 9.47 4.66 8C4.66 6.52 5.86 5.33 7.33 5.33C8.8 5.33 10 6.52 10 8C10 9.47 8.8 10.66 7.33 10.66Z"
            fill-opacity="1.000000" fill-rule="nonzero" />
        <path id="Vector"
            d="M12.56 3.72C12.56 4.25 12.13 4.68 11.6 4.68C11.07 4.68 10.64 4.25 10.64 3.72C10.64 3.19 11.07 2.76 11.6 2.76C12.13 2.76 12.56 3.2 12.56 3.72Z"
            fill-opacity="1.000000" fill-rule="nonzero" />
    </symbol>
    <symbol id="in" viewBox="0 0 16 16" xmlns="http://www.w3.org/2000/svg" xmlns:xlink="http://www.w3.org/1999/xlink">
        <desc>
            Created with Pixso.
        </desc>
        <defs />
        <path id="Vector"
            d="M14.81 0L1.18 0C0.52 0 0 0.51 0 1.15L0 14.84C0 15.48 0.52 16 1.18 16L14.81 16C15.46 16 16 15.48 16 14.84L16 1.15C16 0.51 15.46 0 14.81 0ZM4.74 13.63L2.37 13.63L2.37 5.99L4.74 5.99L4.74 13.63ZM3.55 4.95C2.79 4.95 2.18 4.33 2.18 3.58C2.18 2.82 2.79 2.2 3.55 2.2C4.31 2.2 4.93 2.82 4.93 3.58C4.93 4.33 4.31 4.95 3.55 4.95ZM13.63 13.63L11.26 13.63L11.26 9.92C11.26 9.03 11.24 7.89 10.02 7.89C8.79 7.89 8.6 8.86 8.6 9.85L8.6 13.63L6.23 13.63L6.23 5.99L8.51 5.99L8.51 7.04L8.54 7.04C8.85 6.44 9.63 5.8 10.78 5.8C13.19 5.8 13.63 7.38 13.63 9.44L13.63 13.63Z"
            fill-opacity="1.000000" fill-rule="nonzero" />
    </symbol>
    <symbol id="line-icon" viewBox="0 0 272 24" xmlns="http://www.w3.org/2000/svg"
        xmlns:xlink="http://www.w3.org/1999/xlink">
        <desc>
            Created with Pixso.
        </desc>
        <defs />
        <circle id="Circle" cx="12.000000" cy="12.000000" r="12.000000" fill="#2405F2" fill-opacity="1.000000" />
        <g opacity="0.400000">
            <line id="Line Indicator" x1="48.000000" y1="11.366211" x2="272.000000" y2="11.366211" stroke="#2405F2"
                stroke-opacity="1.000000" stroke-width="2.000000" stroke-dasharray="2.000000,8.000000" />
        </g>
    </symbol>
    <symbol id="pointer" xmlns="http://www.w3.org/2000/svg" viewBox="0 0 1024 1024">
        <path
            d="M512 64a448 448 0 1 1 0 896a448 448 0 0 1 0-896m-55.808 536.384l-99.52-99.584a38.4 38.4 0 1 0-54.336 54.336l126.72 126.72a38.27 38.27 0 0 0 54.336 0l262.4-262.464a38.4 38.4 0 1 0-54.272-54.336z" />
    </symbol>

</svg>